<svg width="12" height="12" viewBox="0 0 12 12" fill="none" xmlns="http://www.w3.org/2000/svg">
<path d="M9 2.5V6C9 6.82843 8.32843 7.5 7.5 7.5H5.165L4.1 8.3L3.3 8.9C3.21345 8.96491 3.10819 9 3 9C2.92151 9.00138 2.844 8.98244 2.775 8.945C2.60686 8.86027 2.50057 8.68828 2.5 8.5V7.5C1.67157 7.5 1 6.82843 1 6V2.5C1 1.67157 1.67157 1 2.5 1H7.5C8.32843 1 9 1.67157 9 2.5Z" fill="#0C87DE"/>
<path d="M11 4.49997V7.99997C11 8.8284 10.3284 9.49997 9.5 9.49997V10.5C9.49943 10.6882 9.39314 10.8602 9.225 10.945C9.156 10.9824 9.07849 11.0014 9 11C8.89181 11 8.78655 10.9649 8.7 10.9L6.835 9.49997H4.5C4.20424 9.49866 3.91548 9.40994 3.67 9.24497L5.33 7.99997H7.5C8.60457 7.99997 9.5 7.10454 9.5 5.99997V2.99997C10.3284 2.99997 11 3.67154 11 4.49997Z" fill="#0C87DE"/>
</svg>
