<svg width="12" height="12" viewBox="0 0 12 12" fill="none" xmlns="http://www.w3.org/2000/svg">
<path fill-rule="evenodd" clip-rule="evenodd" d="M0.999985 6C0.999985 3.23858 3.23856 1 5.99998 1C7.32607 1 8.59784 1.52678 9.53552 2.46447C10.4732 3.40215 11 4.67392 11 6C11 8.76142 8.76141 11 5.99998 11C3.23856 11 0.999985 8.76142 0.999985 6ZM6.49999 6.5H8.49999C8.77613 6.5 8.99999 6.27614 8.99999 6C8.99999 5.72386 8.77613 5.5 8.49999 5.5H6.49999V3.5C6.49999 3.22386 6.27613 3 5.99999 3C5.72385 3 5.49999 3.22386 5.49999 3.5V5.5H3.49999C3.22385 5.5 2.99999 5.72386 2.99999 6C2.99999 6.27614 3.22385 6.5 3.49999 6.5H5.49999V8.5C5.49999 8.77614 5.72385 9 5.99999 9C6.27613 9 6.49999 8.77614 6.49999 8.5V6.5Z" fill="#0C87DE"/>
</svg>
