<?xml version="1.0" standalone="no"?>
<!DOCTYPE svg PUBLIC "-//W3C//DTD SVG 20010904//EN"
 "http://www.w3.org/TR/2001/REC-SVG-20010904/DTD/svg10.dtd">
<svg version="1.0" xmlns="http://www.w3.org/2000/svg"
 width="675.000000pt" height="168.000000pt" viewBox="0 0 675.000000 168.000000"
 preserveAspectRatio="xMidYMid meet">

<g transform="translate(0.000000,168.000000) scale(0.100000,-0.100000)"
fill="#000000" stroke="none">
<path d="M110 880 l0 -750 161 0 161 0 -5 29 c-7 36 -11 851 -4 858 3 2 8 -6
12 -19 13 -46 106 -344 115 -368 5 -14 29 -91 55 -173 l46 -147 162 2 162 3
76 245 c134 433 142 460 148 460 4 0 5 -200 3 -445 l-4 -445 156 0 156 0 0
750 0 750 -199 0 -199 0 -10 -27 c-6 -16 -36 -109 -67 -208 -60 -189 -78 -244
-165 -518 -30 -92 -58 -163 -62 -159 -5 5 -73 211 -152 458 l-143 449 -201 3
-202 2 0 -750z"/>
<path d="M5339 1601 c-105 -34 -157 -155 -110 -256 32 -69 102 -115 173 -115
68 1 153 60 177 123 29 76 -3 180 -69 223 -41 28 -126 40 -171 25z"/>
<path d="M2923 1367 l-152 -41 -3 -105 -3 -105 -77 -19 -78 -19 0 -104 0 -103
78 -3 77 -3 6 -255 c7 -307 16 -345 91 -417 67 -64 209 -101 342 -89 126 12
116 0 116 141 l0 122 -70 -5 c-44 -3 -81 0 -100 8 -55 23 -60 46 -60 285 l0
217 123 -3 122 -4 3 133 3 132 -126 0 -125 0 0 140 c0 77 -3 140 -7 139 -5 0
-76 -19 -160 -42z"/>
<path d="M1925 1146 c-44 -7 -106 -21 -137 -31 l-58 -19 0 -133 c0 -73 2 -133
4 -133 2 0 21 7 41 16 66 27 207 54 288 54 97 0 133 -16 142 -64 13 -69 13
-70 -125 -83 -166 -17 -213 -27 -290 -66 -102 -51 -140 -123 -140 -266 0 -123
60 -235 150 -281 117 -60 325 -45 428 30 23 16 45 30 50 30 4 0 16 -16 26 -35
l19 -35 98 0 98 0 0 312 c1 360 -7 466 -42 541 -56 121 -145 164 -357 172 -71
3 -146 -1 -195 -9z m283 -668 l-3 -112 -33 -19 c-17 -10 -58 -21 -90 -24 -100
-8 -147 43 -132 144 4 24 17 54 30 68 21 22 37 28 145 49 11 2 35 4 53 5 l33
1 -3 -112z"/>
<path d="M3780 1149 c-130 -23 -237 -101 -289 -213 -45 -95 -56 -157 -56 -306
0 -194 33 -304 117 -396 129 -140 413 -172 701 -78 l47 16 0 125 c0 115 -1
125 -17 118 -111 -46 -292 -72 -392 -56 -95 15 -132 47 -146 124 -7 36 -6 37
21 38 16 0 148 1 294 2 l265 2 7 80 c16 161 -14 311 -80 407 -37 54 -106 100
-182 122 -68 21 -217 28 -290 15z m215 -259 c30 -29 49 -91 40 -137 l-6 -33
-139 0 -140 0 0 43 c0 55 26 106 70 135 47 32 137 28 175 -8z"/>
<path d="M4920 1149 c-57 -10 -153 -49 -182 -76 -16 -14 -18 -13 -34 21 l-18
36 -98 0 -98 0 0 -500 0 -500 160 0 160 0 0 356 0 355 44 19 c54 24 166 41
223 33 l43 -6 0 130 0 131 -31 6 c-41 8 -100 6 -169 -5z"/>
<path d="M6093 1149 c-181 -30 -289 -133 -334 -319 -18 -74 -18 -327 0 -400
35 -140 107 -238 209 -283 83 -38 217 -53 331 -39 117 14 196 49 255 112 85
90 115 180 123 365 15 336 -94 518 -336 561 -85 15 -170 16 -248 3z m212 -282
c41 -41 55 -102 55 -237 0 -126 -14 -193 -49 -233 -23 -25 -37 -31 -83 -35
-74 -6 -113 15 -141 76 -19 41 -22 65 -22 187 0 216 33 275 154 275 47 0 57
-4 86 -33z"/>
<path d="M5242 718 c3 -401 4 -414 25 -453 25 -47 75 -96 119 -118 44 -22 152
-38 208 -31 l46 7 0 128 c0 117 -2 129 -18 129 -10 0 -28 7 -40 16 l-22 15 0
360 0 359 -161 0 -160 0 3 -412z"/>
</g>
</svg>
